<?xml version="1.0" encoding="utf-8"?>
<!-- Generator: Adobe Illustrator 23.0.3, SVG Export Plug-In . SVG Version: 6.00 Build 0)  -->
<svg version="1.1" xmlns="http://www.w3.org/2000/svg" xmlns:xlink="http://www.w3.org/1999/xlink" x="0px" y="0px"
	 viewBox="0 0 612 792" style="enable-background:new 0 0 612 792;" xml:space="preserve">
<style type="text/css">
	.st0{display:none;}
	.st1{display:inline;fill:#ED1C24;stroke:#000000;stroke-miterlimit:10;}
	.st2{fill:#FFFFFF;}
	.st3{display:inline;}
	.st4{stroke:#FFFFFF;stroke-width:5;stroke-linecap:round;stroke-linejoin:round;stroke-miterlimit:10;}
	.st5{fill:none;stroke:#FFFFFF;stroke-width:5;stroke-linecap:round;stroke-linejoin:round;stroke-miterlimit:10;}
</style>
<g id="Layer_1" class="st0">
	<rect x="-125.34" y="85.17" class="st1" width="791.49" height="722.04"/>
</g>
<g id="Layer_2">
	<g>
		<path class="st2" d="M548.76,786.86c-127.23-148.97-357.48-148.97-484.71,0c-65.83-56.23-131.66-112.45-197.5-168.68
			c230.91-270.37,648.79-270.37,879.71,0C680.42,674.41,614.59,730.64,548.76,786.86z"/>
	</g>
	<path class="st0" d="M530.71,373.31l8.88-1.69c-0.8-6.32-0.47-3.76-1.27-10.08l-9.01,0.57c0,0,0,0.01,0,0.01
		c-0.85-5.67-1.92-11.27-3.18-16.8l8.57-2.78c-1.58-6.17-0.94-3.67-2.53-9.84l-8.84,1.69c0,0.01,0,0.01,0,0.02
		c-1.56-5.52-3.33-10.95-5.29-16.29c0,0,0,0.01,0.01,0.01l8.14-3.83c-2.35-5.93-1.39-3.52-3.74-9.45l-8.56,2.78
		c-2.24-5.26-4.67-10.41-7.29-15.46l7.61-4.83c-3.07-5.58-1.82-3.32-4.89-8.9l-8.17,3.85c-2.88-4.93-5.94-9.73-9.17-14.41l6.97-5.77
		c-3.75-5.16-2.23-3.06-5.97-8.22l-6.84,4.34l-33.69,44.34c0.59,0.89,1.13,1.83,1.61,2.81c8,16.19,11.17,24.51,15.46,37.5
		c4.29,12.99,6.79,19.6,9.53,39.43c2.74,19.83-12.42,34.5-29.75,26.81l-16.25-7.21l-41.87-18.7l-39.03,51.37
		c-20.07,26.42-57.76,31.56-84.17,11.49c-26.42-20.07-31.56-57.76-11.49-84.17c1.17-1.53,2.46-3.06,3.73-4.45l37.21-40.22
		L261.13,277l-11.88-13.23c-12.67-14.11-1.56-33.98,16.3-36.58c17.87-2.61,26.76-3.05,40.44-3.12c13.68-0.06,20.73-0.4,40.44,3.12
		c10.11,1.81,17.46,7.67,20.52,14.86l43.05-46.54c-0.92-0.48-1.84-0.95-2.76-1.42l3.32-8.39c-5.77-2.71-3.43-1.61-9.19-4.33
		l-4.34,7.9c-5.2-2.29-10.49-4.39-15.89-6.29l2.24-8.73c-6.06-1.97-3.6-1.17-9.66-3.14l-3.32,8.38c0,0,0,0,0,0
		c-5.44-1.61-10.96-3.03-16.55-4.24c0,0,0,0,0,0l1.13-8.95c-6.26-1.19-3.72-0.71-9.98-1.9l-2.25,8.75c0,0,0,0,0,0
		c-5.58-0.91-11.24-1.62-16.95-2.12c0,0,0,0,0,0l0-9.06c-6.36-0.4-3.78-0.24-10.14-0.64l-1.14,9c-2.83-0.11-5.68-0.18-8.54-0.18
		c-2.86,0-5.7,0.07-8.54,0.18l-1.14-9c-6.36,0.4-3.78,0.24-10.14,0.64l0,9.06c-5.71,0.5-11.36,1.21-16.95,2.12l-2.25-8.75
		c-6.26,1.19-3.72,0.71-9.98,1.9l1.13,8.95c0,0,0,0,0,0c-5.6,1.21-11.12,2.62-16.55,4.24l-3.32-8.38c-6.06,1.97-3.6,1.17-9.66,3.14
		l2.24,8.73c-5.39,1.9-10.69,4-15.89,6.29l-4.34-7.9c-5.77,2.71-3.43,1.61-9.19,4.33l3.32,8.39c0,0,0,0,0,0
		c-5.1,2.56-10.1,5.31-14.97,8.24c0,0,0,0,0,0l-5.31-7.31c-5.38,3.41-3.2,2.03-8.58,5.44l4.35,7.92
		c-4.73,3.18-9.34,6.53-13.81,10.05l-6.19-6.59c-4.91,4.06-2.92,2.41-7.83,6.48l5.32,7.33c-4.29,3.74-8.44,7.64-12.44,11.7
		l-6.99-5.78c-4.36,4.65-2.59,2.76-6.95,7.41l6.21,6.61c-3.79,4.24-7.42,8.63-10.89,13.15c0,0,0,0,0,0l-7.65-4.85
		c-3.75,5.16-2.23,3.06-5.97,8.22l6.97,5.77c0,0,0,0,0,0c-3.23,4.68-6.29,9.49-9.17,14.41l-8.17-3.85c-3.07,5.58-1.82,3.32-4.89,8.9
		l7.61,4.83c0,0,0,0,0,0c-2.62,5.05-5.05,10.2-7.29,15.46l-8.56-2.78c-2.35,5.93-1.39,3.52-3.74,9.45l8.14,3.83
		c-1.96,5.33-3.72,10.76-5.28,16.27c0,0,0-0.01,0-0.01l-8.84-1.69c-1.58,6.17-0.94,3.67-2.53,9.84l8.57,2.78
		c-1.27,5.52-2.33,11.12-3.18,16.79l-9.01-0.57c-0.8,6.32-0.47,3.76-1.27,10.08l8.88,1.69c-0.56,5.62-0.92,11.31-1.06,17.05
		l-9.04,0.57c0,6.37,0,3.79,0,10.16l9.04,0.57c0.14,5.74,0.5,11.42,1.06,17.05l-8.88,1.69c0.8,6.32,0.47,3.76,1.27,10.08l9.01-0.57
		c0,0,0-0.01,0-0.01c0.85,5.67,1.92,11.27,3.18,16.8l-8.57,2.78c1.58,6.17,0.94,3.67,2.53,9.84l8.84-1.69c0-0.01,0-0.01,0-0.02
		c1.56,5.52,3.33,10.95,5.29,16.29c0,0,0-0.01-0.01-0.01l-8.14,3.83c2.35,5.93,1.39,3.52,3.74,9.45l8.56-2.78
		c2.24,5.26,4.67,10.41,7.29,15.46l-7.61,4.83c3.07,5.58,1.82,3.32,4.89,8.9l8.17-3.85c0,0,0,0,0,0c2.88,4.93,5.94,9.73,9.17,14.41
		c0,0,0,0,0,0l-6.97,5.77c3.75,5.16,2.23,3.06,5.97,8.22l7.65-4.85c3.47,4.52,7.1,8.91,10.89,13.15l-6.21,6.61
		c4.36,4.65,2.59,2.76,6.95,7.41l6.99-5.78c0,0,0,0,0,0c4,4.05,8.15,7.96,12.44,11.7l-5.32,7.33c4.91,4.06,2.92,2.41,7.83,6.48
		l6.19-6.59c4.47,3.52,9.08,6.87,13.82,10.05c0,0,0,0,0,0l-4.35,7.92c5.38,3.41,3.2,2.03,8.58,5.44l5.31-7.31
		c4.87,2.93,9.86,5.68,14.97,8.24l-3.32,8.39c5.77,2.71,3.43,1.61,9.19,4.33l4.34-7.9c5.2,2.29,10.49,4.39,15.89,6.29l-2.24,8.73
		c6.06,1.97,3.6,1.17,9.66,3.14l3.32-8.38c0,0,0,0,0,0c5.44,1.61,10.96,3.03,16.56,4.24c0,0,0,0,0,0l-1.13,8.95
		c6.26,1.19,3.72,0.71,9.98,1.9l2.25-8.75c0,0,0,0,0,0c5.58,0.91,11.24,1.62,16.95,2.12c0,0,0,0,0,0l0,9.06
		c6.36,0.4,3.78,0.24,10.14,0.64l1.14-9c2.83,0.11,5.68,0.18,8.54,0.18c2.86,0,5.7-0.07,8.54-0.18l1.14,9
		c6.36-0.4,3.78-0.24,10.14-0.64l0-9.06c5.71-0.5,11.36-1.21,16.95-2.12l2.25,8.75c6.26-1.19,3.72-0.71,9.98-1.9l-1.13-8.95
		c0,0,0,0,0,0c5.6-1.21,11.12-2.62,16.55-4.24l3.32,8.38c6.06-1.97,3.6-1.17,9.66-3.14l-2.24-8.73c5.39-1.9,10.69-4,15.89-6.29
		l4.34,7.9c5.77-2.71,3.43-1.61,9.19-4.33l-3.32-8.39c5.1-2.56,10.09-5.31,14.97-8.24c0,0,0,0,0,0l5.31,7.31
		c5.38-3.41,3.2-2.03,8.58-5.44l-4.35-7.92c4.73-3.18,9.34-6.53,13.81-10.05l6.19,6.59c4.91-4.06,2.92-2.41,7.83-6.48l-5.32-7.33
		c4.3-3.74,8.44-7.65,12.44-11.7c0,0,0,0,0,0l6.99,5.78c4.36-4.65,2.59-2.76,6.95-7.41l-6.21-6.61c3.79-4.24,7.42-8.63,10.89-13.15
		c0,0,0,0,0,0l7.65,4.85c3.75-5.16,2.23-3.06,5.97-8.22l-6.97-5.77c3.23-4.68,6.29-9.49,9.17-14.41l8.17,3.85
		c3.07-5.58,1.82-3.32,4.89-8.9l-7.61-4.83c2.62-5.04,5.05-10.2,7.29-15.46l8.56,2.78c2.35-5.93,1.39-3.52,3.74-9.45l-8.14-3.83
		c1.96-5.33,3.72-10.76,5.28-16.27c0,0,0,0.01,0,0.01l8.84,1.69c1.58-6.17,0.94-3.67,2.53-9.84l-8.57-2.78
		c1.27-5.52,2.33-11.12,3.18-16.79l9.01,0.57c0.8-6.32,0.47-3.76,1.27-10.08l-8.88-1.69c0.56-5.62,0.92-11.31,1.06-17.05l9.04-0.57
		c0-6.37,0-3.79,0-10.16l-9.04-0.57C531.63,384.61,531.27,378.93,530.71,373.31z M132.95,382.29c3.04-17.8,5.36-26.39,9.53-39.43
		c4.17-13.03,6.03-19.84,15.46-37.5c9.44-17.66,30.32-20.61,39.83-4.2l8.91,15.38L236.88,369c1.72,2.99,0.48,6.81-2.67,8.21
		l-55.25,24.69l-16.25,7.21C145.36,416.79,129.91,400.09,132.95,382.29z M239.49,556.35c-15.99-8.39-23.45-13.26-34.55-21.25
		c-11.11-7.99-17.01-11.86-30.89-26.29c-13.87-14.43-10.23-35.21,8.31-39.18l17.39-3.72l59.21-12.51c3.37-0.71,6.62,1.65,6.99,5.08
		l6.4,60.18l1.83,17.69C276.14,555.2,255.48,564.74,239.49,556.35z M437.95,508.81c-12.92,12.61-19.85,18.2-30.89,26.29
		c-11.03,8.09-16.54,12.51-34.55,21.25c-18.01,8.74-36.65-1.15-34.69-20.01l1.83-17.69l6.4-60.18c0.36-3.43,3.61-5.79,6.99-5.08
		l59.21,12.51l17.39,3.72C448.18,473.6,450.87,496.19,437.95,508.81z"/>
	<path class="st0" d="M581.59,70.1c-14.5-13.24-36.99-12.22-50.23,2.28l-265.01,290.2c-0.95,1.04-1.93,2.21-2.81,3.34
		c-17.54,22.77-13.29,55.45,9.48,72.99c22.77,17.54,55.45,13.29,72.99-9.48l239.77-311.38C596.87,103.56,595.31,82.63,581.59,70.1z
		 M306.18,430.76c-19.2,0-34.76-15.56-34.76-34.76s15.56-34.76,34.76-34.76s34.76,15.56,34.76,34.76S325.38,430.76,306.18,430.76z
		 M516.83,107.26L308.04,338.44c-0.49,0.55-1.17,0.82-1.86,0.82c-0.6,0-1.2-0.21-1.67-0.64c-1.02-0.93-1.1-2.51-0.18-3.53
		l208.79-231.18c0.92-1.03,2.51-1.1,3.53-0.18C517.67,104.65,517.75,106.23,516.83,107.26z M558.57,112.98
		c-9.81,0-17.76-7.95-17.76-17.76c0-9.81,7.95-17.76,17.76-17.76s17.76,7.95,17.76,17.76C576.33,105.02,568.38,112.98,558.57,112.98
		z"/>
	<g>
		<path class="st2" d="M-133.45,618.18c65.83,56.23,131.66,112.45,197.5,168.68c127.23-148.97,357.48-148.97,484.71,0
			c65.83-56.23,131.66-112.45,197.5-168.68C515.34,347.82,97.46,347.82-133.45,618.18z"/>
	</g>
</g>
<g id="Layer_3" class="st0">
	<g class="st3">
		<g>
			<g>
				<path class="st4" d="M474.51,599.79c-5.65,14.53-11.3,29.07-16.95,43.6c30.14,11.72,59.23,27.07,86.61,46.05
					c1.04-15.93,1.31-32.09,0.8-48.43c14.75-7.03,30.09-13.4,45.96-19.05c-13.91-9.64-28.19-18.5-42.78-26.58"/>
				<path class="st4" d="M306.12,491.84c90.26,0.02,180.51,22.56,261.9,67.63c-13.25,23.95-26.49,47.89-39.74,71.84
					c-69.05-38.23-145.62-57.35-222.18-57.37"/>
				<path class="st5" d="M528.28,631.31c-24.77,1.93-48.43,6.07-70.72,12.08"/>
				<g>
					<path class="st2" d="M553.9,565.63c-20.78-10.7-41.97-20.16-63.61-28.06c-21.61-7.98-43.61-14.5-65.87-19.56
						c-22.26-5.07-44.76-8.68-67.38-10.83c-22.61-2.18-45.33-2.91-68.02-2.17c-0.74,0.02-1.35-0.4-1.37-0.95
						c-0.02-0.55,0.56-1.02,1.3-1.04c0,0,0,0,0,0c22.77-0.72,45.58,0.02,68.27,2.22c22.69,2.24,45.27,5.94,67.58,11.1
						c22.31,5.17,44.35,11.81,65.98,19.91c21.59,8.18,42.82,17.73,63.35,28.95c0.17,0.09,0.25,0.27,0.18,0.39
						C554.25,565.69,554.06,565.71,553.9,565.63z"/>
				</g>
				<g>
					<path class="st2" d="M534.33,673.06c-15.44-9.73-31.35-18.38-47.63-25.94c-0.38-0.17-0.55-0.59-0.39-0.93
						c0.16-0.34,0.59-0.48,0.97-0.3c0,0,0,0,0,0c16.28,7.69,32.18,16.46,47.59,26.31c0.27,0.17,0.36,0.5,0.21,0.74
						C534.93,673.17,534.59,673.22,534.33,673.06z"/>
				</g>
				<g>
					<path class="st2" d="M568.36,620.17c-6.27-3.89-12.61-7.62-19.01-11.19c-0.42-0.23-0.61-0.69-0.43-1.02
						c0.18-0.33,0.67-0.41,1.09-0.17c0.01,0,0.02,0.01,0.02,0.01c6.33,3.73,12.59,7.62,18.79,11.66c0.25,0.17,0.35,0.46,0.22,0.65
						C568.91,620.3,568.61,620.33,568.36,620.17z"/>
				</g>
				<g>
					<path class="st2" d="M526.84,616.66c-18.52-9.51-37.4-17.93-56.69-24.95c-19.25-7.1-38.85-12.91-58.68-17.41
						c-19.82-4.51-39.87-7.72-60.02-9.64c-20.14-1.94-40.38-2.59-60.58-1.93c-0.66,0.02-1.2-0.41-1.22-0.96
						c-0.02-0.55,0.5-1.02,1.16-1.04c0,0,0,0,0,0c20.29-0.65,40.61,0.01,60.84,1.98c20.22,2,40.34,5.3,60.22,9.9
						c19.88,4.62,39.52,10.53,58.79,17.75c19.23,7.31,38.15,15.81,56.43,25.84c0.15,0.08,0.22,0.25,0.15,0.37
						C527.16,616.7,526.99,616.74,526.84,616.66z"/>
				</g>
			</g>
			<g>
				<path class="st4" d="M137.49,599.79c5.65,14.53,11.3,29.07,16.95,43.6c-30.14,11.72-59.23,27.07-86.61,46.05
					c-1.04-15.93-1.31-32.09-0.8-48.43c-14.75-7.03-30.09-13.4-45.96-19.05c13.91-9.64,28.19-18.5,42.78-26.58"/>
				<path class="st4" d="M305.88,491.84c-90.26,0.02-180.51,22.56-261.9,67.63c13.25,23.95,26.49,47.89,39.74,71.84
					c69.05-38.23,145.62-57.35,222.18-57.37"/>
				<path class="st5" d="M83.72,631.31c24.77,1.93,48.43,6.07,70.72,12.08"/>
				<g>
					<path class="st2" d="M57.86,565.18c20.54-11.22,41.76-20.76,63.35-28.95c21.63-8.1,43.67-14.73,65.98-19.91
						c22.31-5.16,44.89-8.86,67.58-11.1c22.69-2.2,45.5-2.94,68.27-2.22c0.74,0.02,1.32,0.49,1.31,1.04
						c-0.02,0.55-0.63,0.98-1.37,0.96c0,0,0,0,0,0c-22.68-0.73-45.41-0.01-68.02,2.17c-22.62,2.15-45.12,5.76-67.38,10.83
						c-22.26,5.06-44.26,11.58-65.87,19.56c-21.64,7.89-42.84,17.35-63.61,28.06c-0.17,0.09-0.36,0.06-0.43-0.07
						C57.61,565.44,57.7,565.27,57.86,565.18z"/>
				</g>
				<g>
					<path class="st2" d="M77.13,672.19c15.42-9.85,31.32-18.62,47.59-26.31c0.38-0.18,0.81-0.04,0.97,0.3
						c0.16,0.34-0.01,0.76-0.39,0.94c0,0,0,0,0,0c-16.27,7.56-32.18,16.2-47.63,25.94c-0.27,0.17-0.61,0.11-0.76-0.13
						C76.77,672.69,76.86,672.36,77.13,672.19z"/>
				</g>
				<g>
					<path class="st2" d="M43.19,619.45c6.19-4.04,12.46-7.92,18.79-11.66c0.41-0.24,0.91-0.18,1.1,0.14
						c0.19,0.32,0.01,0.78-0.4,1.03c-0.01,0-0.02,0.01-0.02,0.01c-6.4,3.58-12.74,7.31-19.01,11.19c-0.26,0.16-0.56,0.13-0.69-0.07
						C42.84,619.9,42.94,619.62,43.19,619.45z"/>
				</g>
				<g>
					<path class="st2" d="M84.92,616.21c18.28-10.02,37.19-18.53,56.43-25.84c19.27-7.22,38.91-13.14,58.79-17.75
						c19.88-4.6,40-7.91,60.22-9.9c20.22-1.96,40.55-2.62,60.84-1.98c0.66,0.02,1.18,0.49,1.16,1.04c-0.02,0.55-0.57,0.98-1.22,0.96
						c0,0,0,0,0,0c-20.2-0.65-40.44-0.01-60.58,1.93c-20.14,1.91-40.19,5.12-60.02,9.64c-19.83,4.5-39.43,10.3-58.68,17.41
						c-19.28,7.02-38.16,15.44-56.69,24.95c-0.15,0.08-0.33,0.04-0.39-0.09C84.71,616.45,84.78,616.29,84.92,616.21z"/>
				</g>
			</g>
		</g>
		<g>
			<path class="st2" d="M121.3,572.64c-3.72,1.49-7.43,3.03-11.13,4.62c-0.45-1.05-0.9-2.11-1.36-3.16c3.72-1.6,7.45-3.15,11.2-4.65
				C120.45,570.52,120.87,571.58,121.3,572.64z"/>
			<path class="st2" d="M145.94,545.65c0.85,2.35,1.71,4.71,2.56,7.06c-0.27,0.09-0.54,0.18-0.81,0.27
				c-0.97-1.66-2.4-2.79-4.28-3.36c-1.88-0.58-3.71-0.56-5.47,0.05c-1.36,0.47-2.34,1.14-2.93,1.99c-0.59,0.85-0.75,1.65-0.48,2.39
				c0.17,0.47,0.46,0.84,0.86,1.1c0.56,0.35,1.34,0.62,2.36,0.8c0.74,0.13,2.39,0.23,4.93,0.34c3.55,0.15,6.05,0.62,7.49,1.36
				c1.43,0.74,2.37,1.82,2.83,3.23c0.58,1.79,0.22,3.61-1.06,5.46c-1.28,1.85-3.22,3.21-5.83,4.11c-0.82,0.28-1.61,0.48-2.39,0.6
				c-0.78,0.12-1.78,0.19-3.01,0.2c-0.69,0.01-1.23,0.09-1.63,0.23c-0.33,0.12-0.65,0.35-0.94,0.69c-0.29,0.34-0.48,0.77-0.55,1.28
				c-0.24,0.09-0.47,0.17-0.71,0.26c-0.98-2.66-1.96-5.32-2.94-7.98c0.24-0.09,0.48-0.18,0.72-0.26c1.39,2.04,3.11,3.35,5.14,3.96
				c2.03,0.61,3.97,0.59,5.83-0.05c1.43-0.5,2.47-1.2,3.11-2.13c0.64-0.93,0.82-1.82,0.54-2.67c-0.17-0.5-0.5-0.94-0.99-1.3
				c-0.49-0.36-1.14-0.64-1.96-0.84c-0.82-0.19-2.2-0.34-4.16-0.42c-2.74-0.11-4.76-0.3-6.06-0.59c-1.3-0.29-2.38-0.73-3.25-1.35
				c-0.87-0.61-1.49-1.41-1.85-2.4c-0.62-1.68-0.36-3.41,0.79-5.17c1.15-1.76,2.95-3.07,5.37-3.92c0.88-0.31,1.77-0.52,2.66-0.64
				c0.67-0.09,1.52-0.12,2.54-0.08c1.02,0.04,1.71,0,2.07-0.12c0.35-0.12,0.59-0.29,0.74-0.53c0.15-0.23,0.2-0.7,0.16-1.4
				C145.54,545.78,145.74,545.72,145.94,545.65z"/>
			<path class="st2" d="M164.56,552.64c0.66,2.23,1.31,4.46,1.97,6.69c0.33,1.1,0.6,1.77,0.83,2c0.23,0.23,0.59,0.39,1.09,0.47
				c0.49,0.08,1.11,0.01,1.85-0.2c0.29-0.08,0.58-0.17,0.88-0.25c0.06,0.2,0.11,0.39,0.17,0.59c-4.6,1.31-9.18,2.69-13.74,4.14
				c-0.06-0.2-0.12-0.39-0.19-0.59c0.29-0.09,0.58-0.18,0.87-0.28c0.76-0.24,1.34-0.54,1.74-0.91c0.29-0.25,0.47-0.59,0.54-1
				c0.06-0.3-0.07-0.99-0.4-2.06c-1.46-4.72-2.92-9.43-4.37-14.15c-0.34-1.1-0.63-1.76-0.86-1.99c-0.23-0.23-0.61-0.38-1.12-0.44
				c-0.51-0.06-1.16,0.02-1.92,0.26c-0.3,0.1-0.61,0.19-0.91,0.29c-0.06-0.2-0.12-0.39-0.19-0.59c4.77-1.52,9.57-2.96,14.37-4.33
				c0.06,0.2,0.11,0.39,0.17,0.59c-0.3,0.09-0.61,0.17-0.91,0.26c-0.8,0.23-1.41,0.53-1.83,0.89c-0.31,0.25-0.51,0.59-0.61,1.01
				c-0.07,0.3,0.05,0.99,0.37,2.07c0.6,2.04,1.2,4.08,1.8,6.12c3.18-0.93,6.36-1.84,9.55-2.71c-0.56-2.05-1.12-4.1-1.68-6.15
				c-0.3-1.11-0.57-1.78-0.79-2.02c-0.22-0.24-0.6-0.4-1.12-0.48c-0.52-0.08-1.16-0.01-1.94,0.2c-0.3,0.08-0.6,0.17-0.9,0.25
				c-0.06-0.2-0.11-0.39-0.17-0.59c4.8-1.35,9.63-2.63,14.46-3.84c0.05,0.2,0.1,0.4,0.15,0.6c-0.3,0.07-0.6,0.15-0.9,0.23
				c-0.82,0.21-1.44,0.48-1.86,0.83c-0.32,0.24-0.53,0.57-0.64,0.99c-0.08,0.3,0.02,0.99,0.3,2.08c1.24,4.78,2.47,9.56,3.71,14.34
				c0.29,1.11,0.54,1.79,0.76,2.03c0.22,0.24,0.57,0.41,1.07,0.51c0.5,0.09,1.12,0.05,1.86-0.14c0.29-0.07,0.57-0.14,0.86-0.22
				c0.05,0.2,0.1,0.4,0.15,0.6c-4.62,1.16-9.23,2.38-13.82,3.67c-0.06-0.2-0.11-0.39-0.17-0.59c0.29-0.08,0.57-0.16,0.86-0.24
				c0.78-0.22,1.37-0.5,1.76-0.85c0.3-0.24,0.49-0.57,0.59-0.99c0.07-0.3-0.04-0.99-0.34-2.08c-0.61-2.24-1.22-4.48-1.84-6.73
				C170.91,550.81,167.73,551.71,164.56,552.64z"/>
			<path class="st2" d="M198.78,531.59c4.43-1.08,8.27-0.77,11.47,0.88c3.2,1.66,5.07,4.15,5.67,7.44c0.51,2.81-0.05,5.46-1.66,7.97
				c-2.13,3.33-5.55,5.46-10.34,6.48c-4.8,1.02-8.8,0.54-12.07-1.5c-2.58-1.62-4.25-3.85-4.96-6.75c-0.8-3.25-0.08-6.3,2.21-9.13
				C191.38,534.16,194.63,532.34,198.78,531.59z M199.25,532.58c-2.55,0.54-4.27,2-5.13,4.35c-0.7,1.93-0.67,4.47,0.05,7.62
				c0.86,3.74,2.3,6.32,4.31,7.76c1.4,1,3.1,1.28,5.11,0.86c1.36-0.29,2.43-0.79,3.23-1.52c1.02-0.93,1.7-2.22,2.05-3.88
				c0.35-1.66,0.28-3.71-0.2-6.16c-0.58-2.92-1.35-5.04-2.32-6.35c-0.97-1.31-2.05-2.16-3.24-2.54
				C201.93,532.33,200.64,532.28,199.25,532.58z"/>
			<path class="st2" d="M229.05,538.86c0.32,2.06,0.64,4.11,0.96,6.17c0.19,1.2,0.4,1.95,0.62,2.23c0.23,0.28,0.59,0.48,1.07,0.6
				c0.49,0.12,1.34,0.08,2.56-0.1c0.03,0.2,0.06,0.41,0.09,0.61c-4.57,0.67-9.13,1.41-13.68,2.22c-0.04-0.2-0.07-0.4-0.11-0.6
				c1.24-0.22,2.07-0.46,2.48-0.73c0.41-0.27,0.68-0.57,0.81-0.9c0.13-0.34,0.09-1.1-0.11-2.3c-0.81-4.8-1.62-9.6-2.43-14.41
				c-0.2-1.2-0.42-1.94-0.66-2.22c-0.24-0.28-0.61-0.47-1.11-0.58c-0.5-0.11-1.39-0.05-2.68,0.18c-0.04-0.2-0.07-0.4-0.11-0.6
				c4.08-0.72,8.17-1.39,12.27-2.01c4.05-0.61,7.04-0.44,8.95,0.47c1.91,0.91,2.97,2.22,3.19,3.93c0.19,1.45-0.22,2.76-1.2,3.94
				c-0.98,1.18-2.42,2.09-4.32,2.74C234.37,537.92,232.17,538.37,229.05,538.86z M227.35,527.96c0.5,3.2,1,6.41,1.5,9.61
				c0.45-0.05,0.79-0.09,1.02-0.12c1.65-0.25,2.87-0.84,3.65-1.76c0.78-0.92,1.06-2.22,0.82-3.88c-0.24-1.65-0.86-2.8-1.89-3.44
				c-1.02-0.63-2.44-0.82-4.25-0.54C227.92,527.87,227.63,527.92,227.35,527.96z"/>
			<path class="st2" d="M277.78,530.43c2.85-0.16,5.71-0.3,8.56-0.41c0.01,0.22,0.02,0.43,0.03,0.65c-0.96,0.15-1.7,0.41-2.23,0.78
				c-0.53,0.37-1.21,1.21-2.02,2.53c-0.81,1.31-1.96,2.79-3.44,4.45c1.43,0.94,2.59,1.59,3.46,1.95c0.62,0.25,1.22,0.36,1.79,0.33
				c0.99-0.04,1.87-0.62,2.64-1.72c0.28,0.11,0.56,0.22,0.84,0.33c-1.04,1.82-2.16,3.14-3.37,3.94c-0.92,0.61-1.99,0.94-3.2,1
				c-1.04,0.05-2.04-0.08-3-0.39c-0.96-0.32-2.15-0.94-3.57-1.87c-1.62,1.04-3.14,1.82-4.57,2.34c-1.44,0.52-2.95,0.85-4.53,0.98
				c-2.53,0.21-4.59-0.17-6.19-1.16c-1.6-0.99-2.49-2.25-2.65-3.78c-0.17-1.65,0.41-3.16,1.74-4.53c1.33-1.36,3.36-2.62,6.07-3.75
				c-0.42-0.69-0.74-1.36-0.98-2.03c-0.24-0.67-0.38-1.32-0.44-1.96c-0.15-1.76,0.5-3.3,1.97-4.6c1.47-1.3,3.44-2.05,5.88-2.21
				c1.97-0.14,3.56,0.16,4.76,0.87c1.2,0.71,1.82,1.59,1.88,2.63c0.07,1.25-0.45,2.35-1.57,3.31c-1.11,0.96-2.9,1.89-5.36,2.8
				c1.71,2.09,4.12,4.3,7.22,6.67c1.88-1.94,2.81-3.55,2.74-4.85c-0.02-0.46-0.24-0.85-0.66-1.15c-0.41-0.31-1.01-0.47-1.78-0.49
				C277.8,530.86,277.79,530.65,277.78,530.43z M264.8,533.13c-1.06,0.46-1.8,0.93-2.21,1.39c-0.59,0.67-0.84,1.39-0.78,2.15
				c0.09,1.04,0.55,2.03,1.38,3c0.82,0.96,1.77,1.68,2.85,2.16c1.08,0.48,2.13,0.68,3.16,0.6c0.51-0.04,1.07-0.17,1.7-0.4
				c0.62-0.23,1.3-0.55,2.03-0.96C269.51,538.55,266.79,535.92,264.8,533.13z M269.52,529.96c1.41-0.53,2.35-1.06,2.81-1.58
				c0.46-0.52,0.67-1.13,0.63-1.83c-0.08-1.24-0.56-2.25-1.44-3.05c-0.58-0.53-1.27-0.76-2.06-0.71c-0.66,0.05-1.2,0.29-1.64,0.74
				c-0.44,0.44-0.63,1.01-0.57,1.71c0.04,0.54,0.2,1.11,0.46,1.71C267.98,527.55,268.59,528.56,269.52,529.96z"/>
			<path class="st2" d="M320.03,520.27c0.01,2.5,0.02,5,0.02,7.51c-0.28-0.01-0.57-0.02-0.85-0.02c-0.35-1.89-1.3-3.43-2.86-4.61
				c-1.56-1.18-3.27-1.78-5.11-1.8c-1.42-0.01-2.55,0.28-3.38,0.88c-0.83,0.6-1.25,1.3-1.25,2.08c0,0.5,0.14,0.94,0.43,1.33
				c0.4,0.52,1.04,1.04,1.92,1.55c0.65,0.37,2.14,1.03,4.46,1.99c3.25,1.34,5.42,2.63,6.52,3.81c1.09,1.18,1.6,2.52,1.56,4
				c-0.06,1.88-1.01,3.47-2.82,4.78c-1.81,1.31-4.07,1.94-6.79,1.91c-0.85-0.01-1.66-0.09-2.42-0.24c-0.76-0.15-1.72-0.43-2.87-0.83
				c-0.64-0.22-1.17-0.33-1.59-0.33c-0.35,0-0.72,0.11-1.1,0.34c-0.39,0.22-0.7,0.56-0.94,1.02c-0.25,0-0.49,0-0.74,0.01
				c-0.02-2.83-0.04-5.67-0.07-8.5c0.25,0,0.5,0,0.75-0.01c0.61,2.39,1.77,4.2,3.45,5.46c1.68,1.26,3.49,1.9,5.43,1.92
				c1.5,0.02,2.7-0.3,3.6-0.96c0.9-0.66,1.37-1.43,1.39-2.33c0.01-0.53-0.15-1.05-0.48-1.55c-0.33-0.51-0.85-0.99-1.55-1.45
				c-0.7-0.46-1.94-1.06-3.72-1.8c-2.51-1.03-4.32-1.89-5.43-2.6c-1.11-0.71-1.96-1.5-2.57-2.37c-0.6-0.87-0.91-1.83-0.92-2.88
				c-0.01-1.79,0.8-3.33,2.45-4.59c1.66-1.27,3.76-1.9,6.29-1.87c0.92,0.01,1.82,0.11,2.68,0.3c0.66,0.14,1.45,0.4,2.39,0.78
				c0.94,0.38,1.59,0.57,1.97,0.58c0.36,0.01,0.65-0.07,0.87-0.24c0.21-0.17,0.42-0.59,0.62-1.26
				C319.61,520.26,319.82,520.27,320.03,520.27z"/>
			<path class="st2" d="M335.61,522.74c-0.18,3.05-0.35,6.1-0.53,9.15c0.18,0.01,0.37,0.02,0.55,0.03c1.76,0.1,3.07-0.26,3.93-1.1
				c0.85-0.84,1.45-2.13,1.8-3.85c0.26,0.02,0.53,0.04,0.79,0.06c-0.28,3.92-0.56,7.84-0.84,11.76c-0.26-0.02-0.51-0.04-0.77-0.05
				c-0.07-1.29-0.34-2.36-0.81-3.22c-0.47-0.85-1.04-1.44-1.72-1.77c-0.68-0.33-1.68-0.53-3-0.61c-0.12,2.11-0.24,4.22-0.37,6.33
				c-0.07,1.24-0.05,2,0.06,2.28c0.11,0.28,0.34,0.52,0.67,0.72c0.34,0.2,0.89,0.32,1.67,0.37c0.54,0.03,1.08,0.07,1.63,0.11
				c2.54,0.17,4.61-0.16,6.23-1.01c1.61-0.85,2.84-2.23,3.69-4.16c0.25,0.02,0.5,0.04,0.75,0.07c-0.62,2.34-1.23,4.68-1.84,7.02
				c-7.81-0.66-15.64-1.14-23.47-1.42c0.01-0.2,0.02-0.41,0.02-0.61c0.3,0.01,0.6,0.02,0.9,0.03c0.79,0.03,1.43-0.06,1.92-0.27
				c0.35-0.14,0.63-0.39,0.84-0.76c0.16-0.26,0.26-0.95,0.32-2.08c0.22-4.93,0.44-9.86,0.66-14.79c0.05-1.02,0.04-1.64-0.02-1.88
				c-0.12-0.39-0.37-0.7-0.73-0.93c-0.52-0.33-1.24-0.52-2.16-0.55c-0.31-0.01-0.63-0.02-0.94-0.04c0.01-0.2,0.02-0.41,0.02-0.61
				c7.93,0.29,15.86,0.77,23.77,1.43c-0.18,2.21-0.37,4.42-0.55,6.63c-0.26-0.02-0.52-0.04-0.79-0.06
				c-0.27-1.65-0.74-2.86-1.41-3.63c-0.67-0.76-1.66-1.36-2.98-1.79c-0.77-0.25-2.22-0.46-4.36-0.6
				C337.56,522.86,336.58,522.8,335.61,522.74z"/>
			<path class="st2" d="M362.82,536.08c-0.24,2.09-0.48,4.18-0.72,6.27c-0.14,1.21-0.13,1.98,0.01,2.31
				c0.14,0.34,0.43,0.62,0.86,0.86c0.43,0.24,1.27,0.43,2.5,0.58c-0.02,0.2-0.05,0.41-0.07,0.61c-4.61-0.56-9.23-1.06-13.85-1.49
				c0.02-0.2,0.04-0.41,0.06-0.61c1.25,0.12,2.11,0.1,2.58-0.04c0.47-0.15,0.8-0.37,1.02-0.66c0.21-0.29,0.38-1.04,0.5-2.25
				c0.49-4.85,0.98-9.69,1.47-14.54c0.12-1.21,0.11-1.98-0.05-2.32c-0.16-0.33-0.46-0.62-0.92-0.85c-0.45-0.23-1.33-0.41-2.62-0.53
				c0.02-0.2,0.04-0.41,0.06-0.61c4.39,0.41,8.78,0.87,13.16,1.4c3.42,0.41,5.9,0.93,7.43,1.51c1.53,0.58,2.72,1.45,3.57,2.6
				c0.85,1.14,1.18,2.39,0.98,3.74c-0.24,1.64-1.18,2.89-2.79,3.76c-1.03,0.55-2.41,0.88-4.14,0.99c1.88,2.81,3.72,5.63,5.53,8.46
				c0.71,1.1,1.22,1.8,1.55,2.09c0.49,0.42,1.1,0.7,1.81,0.85c-0.03,0.2-0.06,0.4-0.09,0.61c-2.83-0.44-5.66-0.85-8.49-1.23
				c-2.44-3.78-4.94-7.55-7.51-11.29C364.03,536.22,363.42,536.15,362.82,536.08z M364.07,525.11c-0.37,3.27-0.75,6.53-1.12,9.8
				c0.39,0.04,0.78,0.09,1.16,0.13c1.89,0.22,3.32,0.25,4.3,0.09c0.97-0.16,1.78-0.57,2.41-1.23c0.63-0.66,1.03-1.58,1.18-2.75
				c0.22-1.7-0.11-3.02-1.01-3.96c-0.9-0.94-2.47-1.55-4.7-1.82C365.56,525.28,364.82,525.19,364.07,525.11z"/>
			<path class="st2" d="M414.12,532.11c-0.04,0.2-0.09,0.4-0.13,0.6c-1.04-0.09-2.04,0.15-2.99,0.71c-0.69,0.42-1.81,1.51-3.35,3.29
				c-4.33,4.97-8.55,9.99-12.67,15.06c-0.22-0.04-0.43-0.08-0.65-0.12c-1.99-6.43-4.09-12.85-6.32-19.26
				c-0.8-2.32-1.38-3.69-1.72-4.13c-0.33-0.43-1.04-0.79-2.12-1.05c0.03-0.2,0.06-0.4,0.09-0.61c4.5,0.69,9,1.45,13.49,2.26
				c-0.04,0.2-0.07,0.4-0.11,0.6c-0.15-0.03-0.3-0.06-0.46-0.08c-1.21-0.22-2.06-0.24-2.55-0.08c-0.35,0.11-0.55,0.32-0.6,0.64
				c-0.03,0.2-0.02,0.44,0.04,0.72c0.06,0.29,0.31,1.07,0.73,2.35c1.33,4.03,2.6,8.06,3.84,12.1c2.41-2.93,4.86-5.84,7.34-8.73
				c0.89-1.05,1.46-1.76,1.69-2.13c0.23-0.37,0.38-0.7,0.43-0.98c0.07-0.33,0.01-0.63-0.15-0.93c-0.17-0.29-0.45-0.55-0.85-0.77
				c-0.55-0.3-1.32-0.55-2.3-0.74c0.04-0.2,0.08-0.4,0.12-0.6C408.01,530.82,411.07,531.45,414.12,532.11z"/>
			<path class="st2" d="M424.91,557.09c-0.05,0.2-0.1,0.4-0.15,0.6c-4.63-1.16-9.27-2.24-13.92-3.26c0.04-0.2,0.09-0.4,0.13-0.6
				c0.3,0.06,0.59,0.13,0.89,0.2c0.77,0.17,1.42,0.2,1.95,0.08c0.37-0.07,0.7-0.27,0.96-0.6c0.2-0.23,0.43-0.89,0.68-1.99
				c1.09-4.81,2.19-9.63,3.28-14.44c0.26-1.12,0.34-1.84,0.25-2.16c-0.09-0.32-0.34-0.63-0.75-0.94c-0.41-0.31-1.01-0.56-1.79-0.73
				c-0.31-0.07-0.62-0.14-0.93-0.2c0.04-0.2,0.09-0.4,0.13-0.6c4.87,1.06,9.72,2.2,14.56,3.41c-0.05,0.2-0.1,0.4-0.15,0.6
				c-0.31-0.08-0.61-0.15-0.92-0.23c-0.8-0.2-1.48-0.24-2.03-0.14c-0.39,0.06-0.73,0.26-1.03,0.57c-0.21,0.22-0.45,0.88-0.72,1.98
				c-1.16,4.8-2.32,9.6-3.48,14.4c-0.27,1.12-0.36,1.84-0.28,2.15c0.08,0.32,0.32,0.63,0.71,0.95c0.39,0.32,0.95,0.57,1.7,0.75
				C424.32,556.95,424.62,557.02,424.91,557.09z"/>
			<path class="st2" d="M459.41,543.52c-0.78,2.48-1.56,4.96-2.33,7.45c-0.26-0.08-0.52-0.16-0.78-0.24
				c0.02-2.13-0.61-3.96-1.91-5.49c-1.3-1.53-2.98-2.6-5.03-3.2c-1.72-0.5-3.41-0.56-5.06-0.19c-1.65,0.37-2.98,1.11-3.98,2.18
				c-1.29,1.38-2.2,3.06-2.73,5.04c-0.53,1.94-0.7,3.8-0.54,5.56c0.17,1.76,0.78,3.23,1.83,4.4c1.05,1.17,2.58,2.05,4.61,2.64
				c1.66,0.48,3.27,0.64,4.83,0.46c1.56-0.18,3.33-0.75,5.32-1.72c-0.19,0.62-0.39,1.24-0.58,1.85c-1.87,0.8-3.69,1.24-5.46,1.32
				c-1.77,0.09-3.71-0.18-5.85-0.8c-2.81-0.81-5.18-1.97-7.12-3.49c-1.94-1.52-3.29-3.31-4.04-5.37c-0.75-2.06-0.88-4.07-0.38-6.05
				c0.53-2.08,1.71-3.88,3.57-5.39c1.85-1.51,4.09-2.46,6.71-2.85c2.62-0.39,5.26-0.2,7.89,0.56c1.94,0.56,3.89,1.49,5.84,2.8
				c1.13,0.76,1.85,1.19,2.19,1.29c0.43,0.13,0.84,0.12,1.24-0.03c0.39-0.15,0.72-0.48,0.98-0.99
				C458.88,543.36,459.15,543.44,459.41,543.52z"/>
			<path class="st2" d="M472.58,549.76c-1,2.89-1.99,5.78-2.99,8.66c0.18,0.06,0.35,0.12,0.53,0.18c1.69,0.58,3.06,0.59,4.12,0.02
				c1.06-0.58,1.99-1.65,2.79-3.22c0.25,0.09,0.5,0.18,0.75,0.27c-1.33,3.7-2.66,7.39-3.99,11.09c-0.25-0.09-0.49-0.18-0.74-0.26
				c0.28-1.26,0.31-2.37,0.08-3.32c-0.23-0.95-0.63-1.68-1.2-2.18c-0.57-0.5-1.49-0.97-2.76-1.41c-0.69,2-1.38,4-2.07,6
				c-0.4,1.17-0.59,1.91-0.56,2.21c0.03,0.3,0.19,0.6,0.46,0.88c0.28,0.28,0.78,0.55,1.53,0.81c0.52,0.18,1.04,0.36,1.56,0.55
				c2.43,0.86,4.54,1.11,6.34,0.74c1.8-0.37,3.37-1.37,4.72-2.99c0.24,0.09,0.48,0.18,0.71,0.27c-1.24,2.08-2.47,4.17-3.69,6.26
				c-7.44-2.79-14.94-5.4-22.48-7.82c0.06-0.2,0.13-0.39,0.19-0.58c0.29,0.09,0.58,0.19,0.87,0.28c0.76,0.25,1.41,0.33,1.94,0.26
				c0.38-0.04,0.72-0.21,1.02-0.5c0.23-0.21,0.51-0.84,0.87-1.92c1.55-4.69,3.09-9.38,4.64-14.07c0.32-0.97,0.48-1.57,0.49-1.81
				c-0.01-0.41-0.17-0.78-0.46-1.1c-0.41-0.46-1.06-0.84-1.95-1.12c-0.3-0.1-0.61-0.2-0.91-0.29c0.06-0.2,0.13-0.39,0.19-0.58
				c7.64,2.45,15.23,5.08,22.77,7.9c-0.78,2.08-1.55,4.16-2.33,6.24c-0.25-0.09-0.5-0.19-0.75-0.28c0.19-1.67,0.05-2.96-0.4-3.88
				c-0.45-0.92-1.25-1.77-2.42-2.54c-0.68-0.46-2.04-1.05-4.09-1.77C474.45,550.4,473.52,550.08,472.58,549.76z"/>
			<path class="st2" d="M505.63,578.92c-3.68-1.62-7.38-3.19-11.1-4.72c0.44-1.06,0.87-2.12,1.31-3.18
				c3.74,1.54,7.46,3.12,11.17,4.75C506.55,576.82,506.09,577.87,505.63,578.92z"/>
		</g>
	</g>
</g>
<g id="Layer_4" class="st0">
	<g class="st3">
		<g>
			<path d="M101.23,465.18c2.96,7.82,5.91,15.63,8.87,23.45c0.42-0.16,0.85-0.32,1.27-0.48c4.04-1.52,6.56-3.72,7.58-6.69
				c1.02-2.96,1.01-6.79-0.05-11.49c0.62-0.21,1.23-0.43,1.85-0.64c3.5,10.16,7.01,20.32,10.51,30.48c-0.58,0.2-1.16,0.4-1.74,0.6
				c-1.52-3.19-3.25-5.63-5.19-7.32c-1.94-1.69-3.84-2.61-5.7-2.76c-1.85-0.15-4.3,0.34-7.32,1.48c2.05,5.41,4.09,10.82,6.14,16.23
				c1.2,3.17,2.07,5.06,2.63,5.66c0.55,0.6,1.3,0.98,2.24,1.15c0.94,0.17,2.27-0.07,4-0.7c1.21-0.44,2.41-0.87,3.62-1.31
				c5.66-2.02,9.79-4.8,12.43-8.46c2.64-3.66,3.94-8.31,3.88-14c0.57-0.18,1.15-0.35,1.72-0.53c0.96,6.53,1.96,13.05,2.99,19.56
				c-17.53,5.47-34.85,11.89-51.87,19.25c-0.22-0.51-0.44-1.03-0.67-1.54c0.66-0.28,1.31-0.57,1.97-0.85
				c1.72-0.74,2.99-1.61,3.8-2.64c0.6-0.71,0.91-1.62,0.93-2.75c0.05-0.81-0.52-2.64-1.69-5.49c-5.15-12.48-10.29-24.97-15.44-37.45
				c-1.06-2.57-1.79-4.12-2.2-4.64c-0.73-0.85-1.64-1.35-2.74-1.52c-1.56-0.27-3.41,0.05-5.55,0.97c-0.73,0.31-1.46,0.63-2.19,0.94
				c-0.22-0.51-0.44-1.03-0.67-1.54c18.43-7.97,37.17-14.96,56.13-20.94c1.83,5.79,3.65,11.58,5.48,17.36
				c-0.62,0.19-1.23,0.39-1.85,0.59c-2.29-3.94-4.61-6.55-6.93-7.83c-2.33-1.28-5.23-1.82-8.69-1.59
				c-2.02,0.12-5.58,1.05-10.64,2.89C105.82,463.46,103.52,464.31,101.23,465.18z"/>
			<path d="M198.95,453.58c2.11,10.88,4.22,21.76,6.32,32.63c0.62,3.18,1.31,5.1,2.08,5.77c0.77,0.67,2.1,0.93,4.01,0.79
				c0.1,0.54,0.2,1.07,0.3,1.61c-5.83,1.08-11.65,2.25-17.45,3.53c-0.41-1.85-0.81-3.7-1.22-5.54c-1.54,2.82-3.2,5-4.98,6.55
				c-1.79,1.55-3.93,2.63-6.44,3.25c-2.39,0.59-4.69,0.42-6.92-0.52c-2.23-0.94-3.93-2.26-5.08-3.99c-1.15-1.73-2.37-4.96-3.65-9.69
				c-1.46-5.42-2.93-10.84-4.39-16.26c-0.84-3.1-1.67-4.94-2.51-5.53c-0.84-0.59-2.3-0.72-4.38-0.39c-0.15-0.54-0.3-1.08-0.45-1.62
				c6.2-1.74,12.43-3.37,18.68-4.89c2.29,9.4,4.57,18.8,6.86,28.19c0.72,2.94,1.32,4.8,1.82,5.58c0.5,0.78,1.12,1.32,1.85,1.61
				c0.73,0.29,1.51,0.34,2.34,0.14c1.1-0.26,2.03-0.77,2.8-1.54c1.05-1.05,2.18-2.93,3.41-5.65c-1.63-7.39-3.25-14.78-4.88-22.18
				c-0.69-3.13-1.44-5.02-2.25-5.64c-0.81-0.63-2.26-0.83-4.34-0.6c-0.13-0.55-0.25-1.09-0.38-1.64
				C186.38,456.13,192.66,454.8,198.95,453.58z"/>
			<path d="M235.53,447.73c0.4,3.18,0.81,6.37,1.21,9.55c2.5-4.74,4.87-7.95,7.04-9.64c2.17-1.69,4.36-2.64,6.53-2.86
				c1.87-0.19,3.42,0.19,4.64,1.13c1.21,0.94,1.9,2.36,2.07,4.26c0.18,2.02-0.22,3.64-1.19,4.85c-0.97,1.21-2.2,1.89-3.7,2.04
				c-1.74,0.17-3.29-0.19-4.68-1.07c-1.39-0.89-2.21-1.37-2.45-1.47c-0.35-0.14-0.74-0.19-1.17-0.14c-0.96,0.11-1.82,0.54-2.6,1.31
				c-1.23,1.18-2.06,2.76-2.51,4.74c-0.68,3.04-0.79,6.32-0.34,9.84c0.41,3.23,0.82,6.46,1.22,9.69c0.12,0.84,0.24,1.68,0.37,2.52
				c0.22,1.71,0.46,2.8,0.74,3.25c0.47,0.77,1.1,1.29,1.87,1.58c0.77,0.29,2.03,0.37,3.77,0.26c0.06,0.54,0.12,1.08,0.19,1.62
				c-7.79,0.9-15.56,1.97-23.31,3.22c-0.09-0.54-0.17-1.08-0.26-1.61c1.85-0.45,3.05-1.15,3.58-2.1c0.53-0.95,0.52-3.26-0.03-6.91
				c-1.17-7.74-2.35-15.47-3.52-23.21c-0.36-2.39-0.73-3.9-1.09-4.52c-0.46-0.79-1.03-1.33-1.72-1.62
				c-0.69-0.29-1.84-0.39-3.45-0.28c-0.09-0.55-0.18-1.11-0.27-1.66C222.81,449.45,229.17,448.54,235.53,447.73z"/>
			<path d="M289.28,442.26c4.1-0.12,7.94,0.76,11.47,2.63c3.53,1.87,6.18,4.59,7.96,8.11c1.78,3.52,2.63,7.37,2.59,11.55
				c-0.06,6.03-1.72,11.04-4.89,15.1c-3.83,4.91-8.99,7.39-15.63,7.59c-6.52,0.2-11.62-1.78-15.46-6.04
				c-3.83-4.26-6.01-9.31-6.42-15.2c-0.42-6.07,1.1-11.5,4.69-16.25C277.18,445.01,282.46,442.47,289.28,442.26z M289.58,445.48
				c-1.7,0.05-3.15,0.68-4.32,1.89c-1.17,1.21-1.87,3.54-2.11,6.99c-0.23,3.45-0.21,8.23,0.05,14.34c0.14,3.24,0.49,6.25,1.05,9.05
				c0.44,2.13,1.24,3.74,2.4,4.81c1.16,1.08,2.46,1.59,3.89,1.55c1.4-0.04,2.55-0.45,3.47-1.23c1.19-1.06,1.98-2.51,2.35-4.36
				c0.57-2.89,0.79-8.7,0.65-17.45c-0.09-5.15-0.46-8.67-1.12-10.59c-0.66-1.91-1.63-3.29-2.88-4.14
				C292.12,445.73,290.98,445.44,289.58,445.48z"/>
			<path d="M365.39,456.24c6.18,2.04,10.39,4.25,12.67,6.5c3.27,3.21,4.56,7.01,3.94,11.36c-0.65,4.59-3.13,8.09-7.35,10.59
				c-5.18,3.02-12.13,4.01-21.03,3.2c-10.65-0.97-21.31-1.61-31.99-1.92c0.02-0.56,0.03-1.12,0.05-1.68
				c2.92,0.09,4.91-0.1,5.98-0.59c1.06-0.49,1.83-1.14,2.29-1.97c0.46-0.83,0.77-2.9,0.92-6.23c0.61-13.31,1.23-26.61,1.84-39.92
				c0.15-3.33,0.02-5.43-0.41-6.31c-0.43-0.88-1.21-1.61-2.36-2.17c-1.15-0.56-3.34-0.91-6.55-1c0.02-0.56,0.03-1.12,0.05-1.68
				c11.26,0.33,22.51,0.99,33.74,1.97c8.05,0.71,13.68,1.99,16.87,3.62c3.19,1.64,5.57,3.84,7.15,6.56
				c1.58,2.73,2.16,5.49,1.78,8.28c-0.4,2.94-1.94,5.39-4.59,7.38C375.74,454.22,371.41,455.52,365.39,456.24z M347.3,456.92
				c-0.49,6.57-0.98,13.13-1.47,19.7c-0.07,0.75-0.14,1.51-0.22,2.26c-0.12,1.63,0.22,2.89,1.01,3.79c0.79,0.9,2.03,1.41,3.71,1.55
				c2.49,0.21,4.83-0.12,7.04-0.98c2.21-0.86,3.99-2.25,5.34-4.16c1.35-1.91,2.17-4.11,2.44-6.61c0.31-2.86-0.1-5.5-1.29-7.93
				c-1.18-2.42-2.99-4.22-5.41-5.36C356.03,458.05,352.31,457.27,347.3,456.92z M347.56,453.39c4.68,0.35,8.16,0.18,10.48-0.58
				c2.32-0.76,4.16-1.94,5.54-3.56c1.37-1.62,2.21-3.79,2.5-6.5c0.29-2.71-0.08-4.99-1.11-6.85c-1.03-1.85-2.63-3.35-4.81-4.46
				c-2.18-1.11-5.78-1.88-10.8-2.23C348.76,437.27,348.16,445.33,347.56,453.39z"/>
			<path d="M416.25,454.08c-2.18,11-4.37,22-6.55,33.01c-0.58,2.94-0.6,4.89-0.06,5.85c0.54,0.96,1.83,1.7,3.85,2.25
				c-0.11,0.53-0.22,1.07-0.33,1.6c-7.7-1.61-15.43-3.04-23.18-4.3c0.09-0.54,0.17-1.08,0.26-1.61c1.92,0.25,3.42-0.05,4.52-0.9
				c0.73-0.58,1.36-2.35,1.87-5.3c1.41-8.14,2.81-16.29,4.22-24.43c0.51-2.95,0.46-4.91-0.16-5.86c-0.62-0.95-2.01-1.67-4.18-2.15
				c0.09-0.55,0.18-1.11,0.27-1.66C403.28,451.63,409.77,452.8,416.25,454.08z M413.06,432.52c2.23,0.41,3.99,1.45,5.26,3.11
				c1.27,1.65,1.71,3.43,1.33,5.33c-0.38,1.9-1.47,3.36-3.26,4.4c-1.79,1.04-3.74,1.35-5.89,0.96c-2.14-0.4-3.84-1.39-5.12-3
				c-1.28-1.61-1.76-3.36-1.43-5.27c0.33-1.91,1.37-3.41,3.15-4.5C408.87,432.46,410.86,432.12,413.06,432.52z"/>
			<path d="M455.36,443.51c-3.45,13.05-6.9,26.11-10.35,39.16c4.23-2.22,8.52-4.38,12.86-6.5c2.67-1.28,4.41-2.25,5.19-2.94
				c0.78-0.69,1.28-1.42,1.51-2.21c0.23-0.78,0.07-1.54-0.49-2.27c-0.56-0.73-1.84-1.52-3.85-2.34c0.15-0.54,0.31-1.08,0.46-1.62
				c6.82,1.94,13.61,4.01,20.36,6.21c-0.17,0.53-0.35,1.07-0.52,1.6c-1.96-0.54-3.78-0.67-5.46-0.39c-1.68,0.28-5.21,1.61-10.5,4.07
				c-2.06,0.97-4.1,1.94-6.14,2.93c2.14,5.69,4.17,11.38,6.11,17.08c2.32,6.93,3.64,10.87,4.18,11.81c0.7,1.31,1.81,2.28,3.32,2.91
				c-0.17,0.52-0.35,1.03-0.52,1.55c-7.19-2.4-14.42-4.64-21.69-6.72c0.15-0.52,0.3-1.05,0.45-1.57c0.96,0.28,1.72,0.3,2.26,0.08
				c0.54-0.22,0.87-0.54,0.99-0.94c0.19-0.67-0.08-2.09-0.84-4.26c-1.69-4.75-3.44-9.5-5.27-14.24c-1.17,0.61-2.34,1.22-3.5,1.84
				c-0.65,2.46-1.3,4.92-1.95,7.38c-0.83,3.13-1.04,5.17-0.64,6.1c0.4,0.94,1.51,1.76,3.33,2.48c-0.14,0.53-0.29,1.05-0.43,1.58
				c-7.28-2-14.6-3.83-21.94-5.5c0.12-0.53,0.24-1.06,0.36-1.59c1.84,0.23,3.25-0.03,4.24-0.79c0.67-0.53,1.38-2.36,2.13-5.52
				c3.32-13.99,6.65-27.98,9.97-41.97c0.74-3.12,0.88-5.14,0.4-6.07c-0.48-0.92-1.74-1.75-3.79-2.46c0.12-0.55,0.25-1.09,0.37-1.64
				C442.47,440.22,448.93,441.81,455.36,443.51z"/>
			<path d="M522.62,507.78c-7.77-3.36-15.61-6.54-23.49-9.52c-1.72,5.37-1.78,10.1-0.28,14.19c1.15,3.15,3.14,5.28,6.01,6.45
				c1.77,0.72,3.57,0.92,5.41,0.59c1.84-0.33,4.1-1.35,6.81-3.06c0.37,0.52,0.75,1.05,1.12,1.57c-4.12,3.33-7.88,5.34-11.32,6.03
				c-3.44,0.69-6.91,0.33-10.45-1.06c-6.09-2.39-9.87-6.35-11.44-12.06c-1.25-4.6-0.97-9.63,0.95-15.08
				c2.34-6.68,6.18-11.32,11.62-13.81c5.44-2.48,10.94-2.66,16.35-0.53c4.52,1.78,7.77,5.03,9.67,9.65
				C525.49,495.76,525.14,501.31,522.62,507.78z M512.54,500.25c1.84-4.52,2.82-7.72,2.96-9.63c0.13-1.91-0.21-3.53-1.03-4.87
				c-0.46-0.77-1.25-1.38-2.35-1.81c-1.65-0.65-3.28-0.45-4.87,0.59c-2.83,1.8-5.06,4.91-6.71,9.3c-0.19,0.5-0.37,0.99-0.56,1.49
				C504.18,496.91,508.37,498.55,512.54,500.25z"/>
		</g>
	</g>
</g>
</svg>
