<svg xmlns="http://www.w3.org/2000/svg" viewBox="0 0 570.53 629.77"><defs><style>.cls-1{fill:#fff;}</style></defs><title>logo-w</title><g id="Layer_2" data-name="Layer 2"><path class="cls-1" d="M364.39,418.45A545.14,545.14,0,0,1,442,431.36a585.23,585.23,0,0,1,84,26.77l6.19,1.18c1.58-6.17.94-3.66,2.52-9.84l-8.56-2.78q1.89-8.28,3.18-16.79l9,.57c.8-6.32.47-3.76,1.27-10.08l-8.88-1.7q.84-8.43,1.06-17l9-.57V390.92l-9-.57q-.21-8.61-1.06-17l8.88-1.7c-.8-6.32-.47-3.76-1.27-10.08l-9,.57h0q-1.27-8.5-3.18-16.8l8.56-2.78c-1.58-6.18-.94-3.67-2.52-9.84l-8.84,1.68v0Q521,326.11,518,318.1v0l8.14-3.84c-2.35-5.92-1.4-3.52-3.74-9.44l-8.56,2.78q-3.36-7.89-7.29-15.45l7.61-4.84-4.89-8.9-8.18,3.84q-4.31-7.38-9.16-14.41l7-5.77c-3.75-5.15-2.23-3.06-6-8.22l-6.84,4.35-33.69,44.34a28.48,28.48,0,0,1,1.61,2.81,246.92,246.92,0,0,1,15.46,37.5c4.29,13,6.79,19.59,9.53,39.42s-12.41,34.5-29.75,26.82L433,401.9l-41.86-18.71Z" transform="translate(-22.59 -60.8)"/><path class="cls-1" d="M81.29,418.69l-8.88,1.7c.8,6.32.47,3.76,1.27,10.08l9-.57h0q1.28,8.5,3.18,16.8l-8.56,2.78c1.58,6.18.94,3.67,2.52,9.84l8.84-1.68v0l.15.53a584.71,584.71,0,0,1,55.25-19.21,551.68,551.68,0,0,1,103.81-20.14,60,60,0,0,1,8.6-56.91c1.17-1.53,2.46-3.06,3.74-4.45l37.21-40.22L261.13,277l-11.88-13.23c-12.67-14.12-1.56-34,16.31-36.59A246.91,246.91,0,0,1,306,224.06c13.68-.06,20.73-.4,40.44,3.12C356.55,229,363.9,234.86,367,242L410,195.51c-.91-.48-1.83-1-2.76-1.42l3.32-8.39-9.19-4.32-4.34,7.9q-7.8-3.45-15.89-6.3l2.24-8.72-9.66-3.14-3.32,8.38h0c-5.43-1.62-11-3-16.55-4.24h0l1.13-9-10-1.9-2.25,8.75h0q-8.37-1.36-16.95-2.12h0V162l-10.14-.64-1.13,9c-2.84-.11-5.68-.18-8.54-.18s-5.7.07-8.54.18l-1.13-9-10.14.64V171q-8.58.75-16.95,2.12L267,164.4l-10,1.9,1.13,9h0q-8.38,1.81-16.55,4.24l-3.32-8.38-9.66,3.14,2.24,8.72q-8.08,2.85-15.89,6.3l-4.34-7.9-9.19,4.32,3.32,8.39h0q-7.65,3.84-15,8.24h0L184.47,195l-8.57,5.45,4.35,7.92q-7.09,4.77-13.81,10.05l-6.2-6.6-7.83,6.48,5.33,7.32q-6.45,5.63-12.44,11.7l-7-5.78L131.36,239l6.2,6.61q-5.69,6.36-10.89,13.15h0L119,253.87c-3.74,5.16-2.22,3.07-6,8.22l7,5.77h0q-4.86,7-9.17,14.41l-8.18-3.84-4.89,8.9,7.61,4.84h0q-3.93,7.57-7.3,15.46l-8.56-2.78-3.74,9.45L94,318.12q-2.94,8-5.28,16.27v0l-8.84-1.68c-1.58,6.17-.94,3.66-2.52,9.84l8.56,2.78Q84,353.59,82.69,362.1l-9-.57c-.8,6.32-.47,3.76-1.27,10.08l8.88,1.7q-.84,8.43-1.06,17l-9,.57v10.16l9,.57Q80.44,410.26,81.29,418.69ZM133,382.29a246.12,246.12,0,0,1,9.53-39.42c4.17-13,6-19.84,15.46-37.5s30.32-20.61,39.83-4.2l8.92,15.38L236.88,369a5.81,5.81,0,0,1-2.67,8.21L179,401.9l-16.26,7.21C145.36,416.79,129.91,400.09,133,382.29Z" transform="translate(-22.59 -60.8)"/><path class="cls-1" d="M277.94,416.25a34.76,34.76,0,1,1,56.63-.2c6.26.52,12.51,1.11,18.78,1.53l1.69.12L585.78,118.05a35.55,35.55,0,0,0-54.42-45.67l-265,290.2c-1,1-1.94,2.2-2.81,3.34A52,52,0,0,0,256.87,418C263.89,417.4,270.91,416.83,277.94,416.25ZM558.57,77.45a17.77,17.77,0,1,1-17.76,17.76A17.76,17.76,0,0,1,558.57,77.45ZM304.32,335.09l208.8-231.18a2.5,2.5,0,1,1,3.71,3.35L308,338.44a2.5,2.5,0,0,1-3.72-3.35Z" transform="translate(-22.59 -60.8)"/></g><g id="Layer_3" data-name="Layer 3"><path class="cls-1" d="M517.62,630.53A380.59,380.59,0,0,0,457,641.37l12.93-32.92A448.93,448.93,0,0,1,517.62,630.53Z" transform="translate(-22.59 -60.8)"/><path class="cls-1" d="M527,635.06a379.88,379.88,0,0,0-67.17,10.87,410.93,410.93,0,0,1,81.92,44.64c1.18-15.89,1.58-32,1.19-48.36a476.59,476.59,0,0,1,46-18.8q-19.38-13.63-39.7-25.18l-20.3,35.68a.76.76,0,0,1-.08.11,1.66,1.66,0,0,1-.16.21l-.16.18-.19.15-.21.14-.22.12a1.84,1.84,0,0,1-.25.09l-.24.07a1.47,1.47,0,0,1-.29,0Zm20.53-24.84,0,0a.78.78,0,0,1-.39-1,.8.8,0,0,1,1.1-.14q9.44,5.64,18.68,11.74a.5.5,0,0,1,.22.64.49.49,0,0,1-.68.07Q557,615.63,547.49,610.22Zm-62.13,36.67a419.9,419.9,0,0,1,47.23,26.42.55.55,0,0,1,.2.74.54.54,0,0,1-.75.12,417.35,417.35,0,0,0-47.26-26h0a.68.68,0,1,1,.58-1.23Z" transform="translate(-22.59 -60.8)"/><path class="cls-1" d="M363.23,526.05,361,525.8c-.36,3.27-.73,6.54-1.09,9.8l1.17.13a16.47,16.47,0,0,0,4.28.08,4.22,4.22,0,0,0,2.4-1.24,4.77,4.77,0,0,0,1.17-2.76,4.59,4.59,0,0,0-1-4Q366.57,526.44,363.23,526.05Z" transform="translate(-22.59 -60.8)"/><path class="cls-1" d="M312.56,542.47a2.91,2.91,0,0,0,1.37-2.33,2.66,2.66,0,0,0-.49-1.56,5.32,5.32,0,0,0-1.55-1.44,24.51,24.51,0,0,0-3.72-1.78c-1.15-.47-2.14-.9-3-1.3q0,4.25,0,8.49a8.83,8.83,0,0,0,3.79.9A5.85,5.85,0,0,0,312.56,542.47Z" transform="translate(-22.59 -60.8)"/><path class="cls-1" d="M305.13,495.31q0,4.19,0,8.39,25.53,0,51,2.44A520.54,520.54,0,0,1,489.4,537.3a498.76,498.76,0,0,1,63.13,29.16c.16.09.25.26.18.38a.3.3,0,0,1-.42.07,542.28,542.28,0,0,0-63.4-28.28A521.94,521.94,0,0,0,356,508.1q-25.35-2.44-50.82-2.41l0,15.65a11.6,11.6,0,0,1,2.77-.29,13,13,0,0,1,2.67.28,14.32,14.32,0,0,1,2.39.77,7,7,0,0,0,2,.57,1.28,1.28,0,0,0,.86-.25,2.82,2.82,0,0,0,.61-1.27l.63,0,.06,7.5h-.85a7.27,7.27,0,0,0-2.87-4.6,8.4,8.4,0,0,0-5.1-1.77,5.84,5.84,0,0,0-3.14.76c0,1.51,0,3,0,4.51a8.59,8.59,0,0,0,.89.59c.64.36,2.14,1,4.46,2,3.25,1.33,5.41,2.6,6.52,3.78a5.48,5.48,0,0,1,1.57,4,6,6,0,0,1-2.79,4.79,11,11,0,0,1-6.76,1.94,13.23,13.23,0,0,1-2.41-.23q-.64-.12-1.47-.36l0,17.44q22.71,0,45.37,2.18a462,462,0,0,1,118.51,27.73,443.19,443.19,0,0,1,56.13,26,.31.31,0,0,1,.15.37.29.29,0,0,1-.4.08,486.17,486.17,0,0,0-56.39-25.09,464.51,464.51,0,0,0-118.19-27.12q-22.54-2.18-45.18-2.14c0,3,0,6,0,8.95a453.33,453.33,0,0,1,219.7,56.41l37.23-67.52A530.41,530.41,0,0,0,305.13,495.31Zm39.41,50.32q-11.69-.95-23.4-1.32l0-.61.9,0a4.48,4.48,0,0,0,1.92-.28,1.63,1.63,0,0,0,.83-.77,5.56,5.56,0,0,0,.3-2.08q.3-7.4.59-14.8a9.38,9.38,0,0,0,0-1.87,1.57,1.57,0,0,0-.73-.93,4.28,4.28,0,0,0-2.16-.54l-.94,0,0-.62q11.86.38,23.72,1.32c-.18,2.21-.35,4.42-.53,6.63l-.78-.06a7.15,7.15,0,0,0-1.42-3.62,6.5,6.5,0,0,0-3-1.77,19.81,19.81,0,0,0-4.36-.58l-2.92-.16q-.24,4.57-.49,9.15l.56,0a5,5,0,0,0,3.91-1.12,7.32,7.32,0,0,0,1.77-3.86l.79.05q-.39,5.88-.79,11.76l-.77-.05a7.47,7.47,0,0,0-.82-3.22,4,4,0,0,0-1.72-1.76,8.24,8.24,0,0,0-3-.59q-.18,3.16-.34,6.33a7.52,7.52,0,0,0,.07,2.28,1.45,1.45,0,0,0,.67.72,3.84,3.84,0,0,0,1.67.36l1.62.1a11.47,11.47,0,0,0,6.2-1,8.2,8.2,0,0,0,3.66-4.18l.75.07Q345.44,542.11,344.54,545.63Zm33,3.81c-2.82-.43-5.64-.82-8.47-1.2q-3.66-5.65-7.52-11.26l-1.81-.2-.69,6.27a6,6,0,0,0,0,2.31,1.87,1.87,0,0,0,.86.86,7.63,7.63,0,0,0,2.5.57l-.07.61q-6.9-.81-13.82-1.43l.06-.61a7.56,7.56,0,0,0,2.57-.06,2,2,0,0,0,1-.66,5.78,5.78,0,0,0,.49-2.25l1.41-14.55a5.47,5.47,0,0,0-.06-2.31,1.94,1.94,0,0,0-.91-.85,8.15,8.15,0,0,0-2.62-.52l0-.61q6.57.59,13.13,1.34a33.45,33.45,0,0,1,7.42,1.48,7.79,7.79,0,0,1,3.57,2.58,4.91,4.91,0,0,1,1,3.74,5,5,0,0,1-2.78,3.77,10.49,10.49,0,0,1-4.12,1q2.82,4.2,5.53,8.44a13.37,13.37,0,0,0,1.55,2.08,3.89,3.89,0,0,0,1.81.84Zm31.75-16.53a5,5,0,0,0-3,.72,19,19,0,0,0-3.32,3.31q-6.44,7.5-12.55,15.14l-.66-.12q-3-9.62-6.4-19.21a21.29,21.29,0,0,0-1.73-4.12,3.88,3.88,0,0,0-2.12-1l.09-.6q6.74,1,13.46,2.17l-.11.61-.45-.08a5.93,5.93,0,0,0-2.54-.07.79.79,0,0,0-.6.64,2.13,2.13,0,0,0,.05.73c.06.28.31,1.06.74,2.34q2,6,3.9,12.07,3.58-4.42,7.27-8.78a26.05,26.05,0,0,0,1.67-2.14,3.22,3.22,0,0,0,.43-1,1.3,1.3,0,0,0-.16-.92,2,2,0,0,0-.85-.76,8,8,0,0,0-2.3-.73l.12-.61c3.06.59,6.11,1.2,9.17,1.84Zm16.05,3.64-.92-.23a4.81,4.81,0,0,0-2-.12,1.75,1.75,0,0,0-1,.57,5.39,5.39,0,0,0-.71,2q-1.7,7.2-3.4,14.41a6.13,6.13,0,0,0-.27,2.16,2,2,0,0,0,.71.94,4.35,4.35,0,0,0,1.7.74l.88.21-.15.6q-6.93-1.7-13.89-3.17c0-.2.09-.4.13-.6l.88.19a4.67,4.67,0,0,0,1.95.06,1.66,1.66,0,0,0,.95-.6,5.51,5.51,0,0,0,.67-2l3.21-14.46a6,6,0,0,0,.24-2.15,1.9,1.9,0,0,0-.75-.94,4.62,4.62,0,0,0-1.79-.72l-.92-.2.12-.6q7.29,1.54,14.55,3.32Zm27,14.37-.77-.24a8.09,8.09,0,0,0-1.93-5.48,10.15,10.15,0,0,0-5-3.17,10,10,0,0,0-5-.16,7.62,7.62,0,0,0-4,2.21,11.76,11.76,0,0,0-2.71,5,15.4,15.4,0,0,0-.51,5.56,7.45,7.45,0,0,0,1.84,4.39,9.61,9.61,0,0,0,4.6,2.61,12.15,12.15,0,0,0,4.82.43,16.77,16.77,0,0,0,5.29-1.74l-.57,1.85a15.82,15.82,0,0,1-5.43,1.36,18.29,18.29,0,0,1-5.84-.77,20.77,20.77,0,0,1-7.11-3.45,12,12,0,0,1-4-5.34,9.89,9.89,0,0,1,3.13-11.46,13.57,13.57,0,0,1,6.69-2.89,18.3,18.3,0,0,1,7.87.52,21.1,21.1,0,0,1,5.83,2.76,12.42,12.42,0,0,0,2.19,1.28,1.88,1.88,0,0,0,1.24,0,1.91,1.91,0,0,0,1-1l.79.24Q453.54,547.18,452.38,550.92Zm21.13,23.24q-11.13-4.14-22.43-7.7c.06-.2.12-.39.19-.59l.86.28a4.59,4.59,0,0,0,1.94.25,1.66,1.66,0,0,0,1-.51A5.6,5.6,0,0,0,456,564l4.57-14.08a8.67,8.67,0,0,0,.48-1.82,1.63,1.63,0,0,0-.46-1.09,4.5,4.5,0,0,0-2-1.12l-.91-.28.19-.59q11.43,3.62,22.74,7.79L478.3,559l-.75-.27a7.12,7.12,0,0,0-.4-3.88,6.7,6.7,0,0,0-2.42-2.53,20.9,20.9,0,0,0-4.09-1.75c-.93-.33-1.86-.65-2.8-1q-1.47,4.33-2.95,8.67l.53.18a5,5,0,0,0,4.11,0,7.21,7.21,0,0,0,2.78-3.23l.75.27q-2,5.55-3.95,11.11l-.73-.27a7.46,7.46,0,0,0,.07-3.31,4,4,0,0,0-1.2-2.17,8.32,8.32,0,0,0-2.76-1.4l-2,6a7.58,7.58,0,0,0-.55,2.21,1.49,1.49,0,0,0,.46.88,4.21,4.21,0,0,0,1.53.81l1.55.53a11.86,11.86,0,0,0,6.33.71,8.19,8.19,0,0,0,4.69-3l.72.27Q475.34,571,473.51,574.16Zm27.37,4.46q-5.52-2.4-11.08-4.66l1.3-3.19q5.59,2.28,11.15,4.7C501.79,576.52,501.33,577.57,500.88,578.62Z" transform="translate(-22.59 -60.8)"/><path class="cls-1" d="M93.88,630.53a380.59,380.59,0,0,1,60.67,10.84l-12.93-32.92A448.93,448.93,0,0,0,93.88,630.53Z" transform="translate(-22.59 -60.8)"/><path class="cls-1" d="M84.39,635a1.47,1.47,0,0,1-.29,0l-.24-.07a1.84,1.84,0,0,1-.25-.09l-.22-.12-.21-.14-.19-.15-.16-.18a1.66,1.66,0,0,1-.16-.21.76.76,0,0,1-.08-.11l-20.3-35.68Q42,609.78,22.59,623.41a476.59,476.59,0,0,1,46,18.8c-.39,16.32,0,32.47,1.19,48.36a410.93,410.93,0,0,1,81.92-44.64,379.88,379.88,0,0,0-67.17-10.87ZM45.11,621.49a.49.49,0,0,1-.68-.07.5.5,0,0,1,.22-.64q9.24-6.1,18.68-11.74a.8.8,0,0,1,1.1.14.78.78,0,0,1-.39,1l0,0Q54.47,615.62,45.11,621.49Zm82,25.69a.71.71,0,0,1-.38.94h0a417.35,417.35,0,0,0-47.26,26,.54.54,0,0,1-.75-.12.55.55,0,0,1,.2-.74,419.9,419.9,0,0,1,47.23-26.42A.7.7,0,0,1,127.1,647.18Z" transform="translate(-22.59 -60.8)"/><path class="cls-1" d="M264.33,542.93a6.51,6.51,0,0,0,3.15.59,6.35,6.35,0,0,0,1.69-.41,13.06,13.06,0,0,0,2-1,35.74,35.74,0,0,1-8.14-7.9,6.55,6.55,0,0,0-2.2,1.4,2.81,2.81,0,0,0-.76,2.15,5.31,5.31,0,0,0,1.38,3A8,8,0,0,0,264.33,542.93Z" transform="translate(-22.59 -60.8)"/><path class="cls-1" d="M234.16,536.6a4.72,4.72,0,0,0,.81-3.88,4.49,4.49,0,0,0-1.88-3.43,6.14,6.14,0,0,0-4.24-.54l-.85.13,1.5,9.61,1-.12A5.7,5.7,0,0,0,234.16,536.6Z" transform="translate(-22.59 -60.8)"/><path class="cls-1" d="M267.74,531.06a7.48,7.48,0,0,0,2.79-1.59,2.44,2.44,0,0,0,.62-1.84,4.31,4.31,0,0,0-1.44-3,2.67,2.67,0,0,0-2.06-.7,2.46,2.46,0,0,0-1.63.74,2.1,2.1,0,0,0-.57,1.71,5.35,5.35,0,0,0,.47,1.72A24.76,24.76,0,0,0,267.74,531.06Z" transform="translate(-22.59 -60.8)"/><path class="cls-1" d="M204.35,554.08a6.69,6.69,0,0,0,3.21-1.52,7,7,0,0,0,2-3.88,16,16,0,0,0-.21-6.17,16.59,16.59,0,0,0-2.33-6.35,6.62,6.62,0,0,0-3.24-2.53,7.33,7.33,0,0,0-3.85-.12,6.53,6.53,0,0,0-5.1,4.35q-1,2.89.06,7.62c.86,3.74,2.31,6.32,4.32,7.75A6.17,6.17,0,0,0,204.35,554.08Z" transform="translate(-22.59 -60.8)"/><path class="cls-1" d="M304.71,525.28a2.14,2.14,0,0,0,.44,1.32,5.49,5.49,0,0,0,1.18,1.08c0-1.57,0-3.15,0-4.72a4.1,4.1,0,0,0-.4.23A2.58,2.58,0,0,0,304.71,525.28Z" transform="translate(-22.59 -60.8)"/><path class="cls-1" d="M86.28,617.35a443.19,443.19,0,0,1,56.13-26,462,462,0,0,1,118.51-27.73q22.63-2.21,45.37-2.18l0-17.4c-.47-.13-1-.29-1.55-.49a5.16,5.16,0,0,0-1.59-.33,2.4,2.4,0,0,0-1.1.34,2.57,2.57,0,0,0-.93,1h-.74l-.09-8.5h.75a9.31,9.31,0,0,0,5.25,6.52q0-4.25,0-8.49a23.54,23.54,0,0,1-2.59-1.35,8.93,8.93,0,0,1-2.57-2.35,5.06,5.06,0,0,1-.92-2.88,5.58,5.58,0,0,1,2.43-4.61,8.86,8.86,0,0,1,3.66-1.64q0-7.8,0-15.61-25.44,0-50.82,2.41a521.94,521.94,0,0,0-132.93,30.53,542.28,542.28,0,0,0-63.4,28.28.3.3,0,0,1-.42-.07c-.07-.12,0-.29.18-.38A498.76,498.76,0,0,1,122.1,537.3a520.54,520.54,0,0,1,133.25-31.16q25.44-2.46,51-2.44,0-4.2,0-8.39a530.41,530.41,0,0,0-257,66l37.23,67.52a453.33,453.33,0,0,1,219.7-56.41q0-4.47,0-8.95-22.62,0-45.18,2.14a464.51,464.51,0,0,0-118.19,27.12A486.17,486.17,0,0,0,86.53,617.8a.29.29,0,0,1-.4-.08A.31.31,0,0,1,86.28,617.35ZM256.34,537a18.48,18.48,0,0,1,6-3.77,11.41,11.41,0,0,1-1-2,7.91,7.91,0,0,1-.45-2,5.31,5.31,0,0,1,1.94-4.61,9.65,9.65,0,0,1,5.86-2.24,8.18,8.18,0,0,1,4.75.85,3.32,3.32,0,0,1,1.89,2.62,4,4,0,0,1-1.55,3.32,18.43,18.43,0,0,1-5.33,2.82,43.82,43.82,0,0,0,7.22,6.65c1.87-1.95,2.79-3.56,2.72-4.87a1.51,1.51,0,0,0-.66-1.15,3.17,3.17,0,0,0-1.78-.49l0-.64q4.27-.25,8.54-.44l0,.64a5.32,5.32,0,0,0-2.22.8,9,9,0,0,0-2,2.53,32.65,32.65,0,0,1-3.41,4.46,22.17,22.17,0,0,0,3.46,1.94,4.33,4.33,0,0,0,1.79.32,3.43,3.43,0,0,0,2.63-1.73l.84.33a11.5,11.5,0,0,1-3.34,4,6.3,6.3,0,0,1-3.19,1,8.15,8.15,0,0,1-3-.38,16.66,16.66,0,0,1-3.56-1.86,23.67,23.67,0,0,1-4.55,2.36,17.36,17.36,0,0,1-4.52,1,9.91,9.91,0,0,1-6.18-1.14,5,5,0,0,1-2.65-3.76A5.5,5.5,0,0,1,256.34,537Zm-35.08,13.89a7.46,7.46,0,0,0,2.47-.73,2,2,0,0,0,.81-.9,6,6,0,0,0-.12-2.31q-1.21-7.2-2.44-14.4a5.67,5.67,0,0,0-.67-2.22,1.93,1.93,0,0,0-1.1-.58,8.62,8.62,0,0,0-2.68.18l-.1-.6q6.1-1.08,12.23-2c4-.61,7-.44,8.93.47a4.9,4.9,0,0,1,2,7.87,9.42,9.42,0,0,1-4.31,2.74,41.57,41.57,0,0,1-6.58,1.38l1,6.17a5.83,5.83,0,0,0,.63,2.23,1.92,1.92,0,0,0,1.07.6,8,8,0,0,0,2.55-.1l.09.61q-6.83,1-13.63,2.21Zm-31.41-13a15.51,15.51,0,0,1,9.65-5.41c4.42-1.08,8.26-.78,11.44.88a10.08,10.08,0,0,1,5.67,7.43,10.82,10.82,0,0,1-1.64,8c-2.12,3.33-5.53,5.47-10.3,6.49s-8.77.55-12-1.49a10.75,10.75,0,0,1-5-6.75A10.08,10.08,0,0,1,189.85,537.93Zm-31.51,28.55.87-.28a4.53,4.53,0,0,0,1.72-.91,1.67,1.67,0,0,0,.54-1,5.66,5.66,0,0,0-.41-2.06l-4.41-14.14a5.93,5.93,0,0,0-.86-2,2,2,0,0,0-1.12-.44,4.58,4.58,0,0,0-1.92.27l-.91.29-.19-.59q7.14-2.28,14.33-4.36l.17.59-.91.27a4.9,4.9,0,0,0-1.82.89,1.75,1.75,0,0,0-.6,1,5.29,5.29,0,0,0,.37,2.07q.92,3.06,1.81,6.12,4.75-1.41,9.53-2.73c-.57-2.05-1.13-4.09-1.69-6.14a6,6,0,0,0-.8-2,1.91,1.91,0,0,0-1.11-.48,4.67,4.67,0,0,0-1.94.21l-.89.25-.17-.59q7.19-2,14.42-3.86l.15.59-.9.23a4.92,4.92,0,0,0-1.85.83,1.78,1.78,0,0,0-.63,1,5.56,5.56,0,0,0,.3,2.08l3.74,14.33a6.13,6.13,0,0,0,.76,2,1.88,1.88,0,0,0,1.07.5,4.4,4.4,0,0,0,1.85-.14l.86-.22.15.6q-6.9,1.74-13.77,3.68l-.17-.59.86-.24a4.46,4.46,0,0,0,1.75-.85,1.78,1.78,0,0,0,.59-1,5.79,5.79,0,0,0-.35-2.07q-.91-3.37-1.85-6.73-4.75,1.3-9.49,2.72,1,3.33,2,6.68a5.77,5.77,0,0,0,.83,2,1.9,1.9,0,0,0,1.09.47,4.41,4.41,0,0,0,1.85-.2l.87-.25.17.59q-6.87,2-13.69,4.16Zm-23.41.29.71-.26a9.5,9.5,0,0,0,5.15,3.94,9.22,9.22,0,0,0,5.81-.06,6,6,0,0,0,3.09-2.14,2.93,2.93,0,0,0,.52-2.67,2.7,2.7,0,0,0-1-1.29,5.37,5.37,0,0,0-2-.83,23.81,23.81,0,0,0-4.15-.42,39.11,39.11,0,0,1-6-.57,8.84,8.84,0,0,1-3.25-1.34,5,5,0,0,1-1.86-2.39,5.58,5.58,0,0,1,.77-5.17,10.11,10.11,0,0,1,5.34-3.93,13.45,13.45,0,0,1,2.65-.64,16.13,16.13,0,0,1,2.54-.09,6.74,6.74,0,0,0,2.06-.13,1.31,1.31,0,0,0,.74-.52,2.78,2.78,0,0,0,.16-1.4l.6-.2,2.58,7.05-.81.27a7.32,7.32,0,0,0-4.28-3.36,8.56,8.56,0,0,0-5.46.07,5.74,5.74,0,0,0-2.92,2,2.58,2.58,0,0,0-.48,2.39,2.12,2.12,0,0,0,.87,1.1,6.68,6.68,0,0,0,2.36.8c.74.12,2.38.22,4.91.33,3.55.15,6,.61,7.49,1.34a5.47,5.47,0,0,1,2.83,3.23,6,6,0,0,1-1,5.46,11.18,11.18,0,0,1-5.8,4.12,12.82,12.82,0,0,1-2.38.61,22.59,22.59,0,0,1-3,.21,5,5,0,0,0-1.62.24,2.26,2.26,0,0,0-.93.69,2.49,2.49,0,0,0-.55,1.28l-.7.26C136.9,572.09,135.92,569.43,134.93,566.77Zm-25,8.43q5.55-2.41,11.15-4.69c.44,1.06.87,2.13,1.3,3.19q-5.57,2.25-11.08,4.65C110.8,577.3,110.34,576.25,109.89,575.2Z" transform="translate(-22.59 -60.8)"/></g><g id="Layer_4" data-name="Layer 4"><path class="cls-1" d="M102.08,465.18q4.44,11.71,8.86,23.45l1.27-.48c4.05-1.52,6.57-3.72,7.59-6.69s1-6.79,0-11.49l1.85-.64,10.5,30.48-1.75.61a22.3,22.3,0,0,0-5.18-7.33,10,10,0,0,0-5.7-2.75,17.78,17.78,0,0,0-7.32,1.47q3.06,8.12,6.13,16.23,1.8,4.75,2.62,5.66a3.87,3.87,0,0,0,2.24,1.15,8.46,8.46,0,0,0,4-.71l3.62-1.3c5.66-2,9.79-4.79,12.43-8.46s3.94-8.31,3.89-14l1.72-.53q1.44,9.79,3,19.57a517.82,517.82,0,0,0-51.87,19.24l-.67-1.54,2-.85a9.44,9.44,0,0,0,3.79-2.64,4.24,4.24,0,0,0,.93-2.75c0-.8-.52-2.63-1.69-5.49q-7.72-18.72-15.44-37.45a28.21,28.21,0,0,0-2.2-4.64,4.37,4.37,0,0,0-2.74-1.52,10,10,0,0,0-5.55,1l-2.19.94c-.22-.52-.45-1-.67-1.54a580.94,580.94,0,0,1,56.16-20.94l5.48,17.36-1.85.59q-3.44-5.91-6.93-7.83a15.65,15.65,0,0,0-8.69-1.59c-2,.11-5.58,1.05-10.65,2.88Q105.52,463.88,102.08,465.18Z" transform="translate(-22.59 -60.8)"/><path class="cls-1" d="M199.84,453.62l6.3,32.64q.92,4.77,2.07,5.78c.76.67,2.1.93,4,.79l.3,1.61q-8.75,1.6-17.45,3.51c-.41-1.84-.81-3.69-1.22-5.54a23.36,23.36,0,0,1-5,6.55,15.33,15.33,0,0,1-6.44,3.24,10.79,10.79,0,0,1-6.92-.52,11,11,0,0,1-5.08-4c-1.14-1.73-2.36-4.95-3.64-9.69l-4.38-16.27c-.84-3.1-1.67-4.94-2.51-5.53s-2.3-.72-4.38-.39c-.15-.54-.3-1.08-.46-1.62q9.31-2.61,18.69-4.88l6.84,28.2a23.82,23.82,0,0,0,1.82,5.59,3.94,3.94,0,0,0,1.85,1.61,3.83,3.83,0,0,0,2.35.14,5.56,5.56,0,0,0,2.79-1.53,19.55,19.55,0,0,0,3.41-5.65L188,465.48q-1-4.69-2.24-5.64c-.8-.63-2.25-.83-4.34-.61L181,457.6Q190.4,455.44,199.84,453.62Z" transform="translate(-22.59 -60.8)"/><path class="cls-1" d="M236.43,447.81l1.2,9.55c2.5-4.73,4.88-7.94,7.06-9.63a12.68,12.68,0,0,1,6.54-2.85,6.26,6.26,0,0,1,4.63,1.14,5.72,5.72,0,0,1,2.07,4.26,6.58,6.58,0,0,1-1.2,4.84,5.19,5.19,0,0,1-3.7,2,7.12,7.12,0,0,1-4.68-1.08,23.33,23.33,0,0,0-2.46-1.47,2.31,2.31,0,0,0-1.16-.15,4.39,4.39,0,0,0-2.6,1.31,9.21,9.21,0,0,0-2.52,4.73,28.15,28.15,0,0,0-.35,9.84q.6,4.85,1.21,9.69l.36,2.51a10.13,10.13,0,0,0,.74,3.25,3.67,3.67,0,0,0,1.87,1.58,10.12,10.12,0,0,0,3.77.27c.07.54.13,1.08.19,1.62q-11.68,1.33-23.31,3.2l-.26-1.62c1.85-.45,3-1.14,3.58-2.1s.53-3.26,0-6.91q-1.75-11.61-3.5-23.21a15.66,15.66,0,0,0-1.09-4.52,3.59,3.59,0,0,0-1.71-1.62,8.22,8.22,0,0,0-3.46-.29c-.08-.55-.17-1.11-.26-1.66Q226.88,449,236.43,447.81Z" transform="translate(-22.59 -60.8)"/><path class="cls-1" d="M288.34,442.47a22.66,22.66,0,0,1,11.48,2.61,18.28,18.28,0,0,1,8,8.09,24.69,24.69,0,0,1,2.61,11.55,24.21,24.21,0,0,1-4.86,15.11c-3.83,4.91-9,7.4-15.62,7.61s-11.63-1.75-15.47-6A24.69,24.69,0,0,1,268,466.24,23.29,23.29,0,0,1,272.66,450C276.24,445.24,281.52,442.68,288.34,442.47Zm.31,3.21a6.08,6.08,0,0,0-4.32,1.9q-1.75,1.83-2.09,7a135.34,135.34,0,0,0,.07,14.34,57.73,57.73,0,0,0,1.07,9,8.71,8.71,0,0,0,2.41,4.81,5.28,5.28,0,0,0,3.89,1.54,5.42,5.42,0,0,0,3.47-1.23,7.63,7.63,0,0,0,2.34-4.37q.86-4.33.62-17.45-.15-7.72-1.15-10.59a7.91,7.91,0,0,0-2.88-4.13A5.64,5.64,0,0,0,288.65,445.68Z" transform="translate(-22.59 -60.8)"/><path class="cls-1" d="M364.5,456.33c6.19,2,10.4,4.23,12.68,6.48a12.63,12.63,0,0,1,3.95,11.35,14.2,14.2,0,0,1-7.34,10.6c-5.18,3-12.13,4-21,3.23q-16-1.44-32-1.88c0-.56,0-1.12,0-1.68,2.92.08,4.91-.11,6-.59a4.78,4.78,0,0,0,2.28-2c.46-.83.77-2.9.92-6.23q.88-20,1.78-39.92.23-5-.42-6.31a4.75,4.75,0,0,0-2.37-2.17c-1.15-.56-3.33-.9-6.55-1,0-.56,0-1.12.05-1.68q16.89.46,33.76,1.92c8.05.7,13.68,2,16.87,3.6a16.93,16.93,0,0,1,7.16,6.55,12.69,12.69,0,0,1,1.79,8.28,10.94,10.94,0,0,1-4.58,7.39C374.85,454.29,370.51,455.6,364.5,456.33Zm-18.1.71L345,476.74l-.21,2.26a4.93,4.93,0,0,0,1,3.78,5.33,5.33,0,0,0,3.71,1.55,15.4,15.4,0,0,0,7-1,11.55,11.55,0,0,0,5.33-4.16,14,14,0,0,0,2.44-6.62,14.14,14.14,0,0,0-1.3-7.92,11.14,11.14,0,0,0-5.42-5.35C355.14,458.15,351.41,457.37,346.4,457Zm.25-3.54c4.68.35,8.17.17,10.49-.59a11.93,11.93,0,0,0,5.53-3.57,11.72,11.72,0,0,0,2.49-6.5,11.38,11.38,0,0,0-1.11-6.85,11.15,11.15,0,0,0-4.82-4.46c-2.18-1.11-5.78-1.87-10.81-2.21Z" transform="translate(-22.59 -60.8)"/><path class="cls-1" d="M415.36,454.12q-3.25,16.51-6.53,33c-.58,2.94-.59,4.89-.05,5.85s1.83,1.7,3.85,2.24l-.33,1.61q-11.55-2.41-23.18-4.29c.09-.53.17-1.07.26-1.61a5.86,5.86,0,0,0,4.52-.91c.73-.58,1.36-2.35,1.86-5.3l4.2-24.44q.77-4.42-.17-5.85c-.62-.95-2-1.67-4.18-2.14l.27-1.66Q405.65,452.21,415.36,454.12Zm-3.21-21.55a8.27,8.27,0,0,1,5.26,3.1,6.41,6.41,0,0,1-1.92,9.73,8.81,8.81,0,0,1-11-2A6.47,6.47,0,0,1,403,438.1a6.39,6.39,0,0,1,3.15-4.51A8.18,8.18,0,0,1,412.15,432.57Z" transform="translate(-22.59 -60.8)"/><path class="cls-1" d="M454.48,443.53l-10.32,39.16q6.34-3.31,12.86-6.5a27.32,27.32,0,0,0,5.19-2.94,4.88,4.88,0,0,0,1.51-2.21,2.44,2.44,0,0,0-.49-2.27,9.69,9.69,0,0,0-3.85-2.34l.45-1.62q10.23,2.91,20.38,6.2l-.52,1.6a12.64,12.64,0,0,0-5.46-.39c-1.68.29-5.22,1.61-10.5,4.08-2.06,1-4.1,1.95-6.14,2.94q3.21,8.52,6.12,17.08c2.33,6.93,3.65,10.87,4.18,11.8a6.41,6.41,0,0,0,3.32,2.91l-.51,1.55Q459.92,509,449,505.88l.45-1.58a3.52,3.52,0,0,0,2.25.09,1.56,1.56,0,0,0,1-.95c.19-.67-.08-2.09-.84-4.26q-2.53-7.12-5.28-14.24c-1.17.61-2.34,1.22-3.5,1.84q-1,3.69-1.94,7.37c-.83,3.14-1,5.17-.64,6.11s1.52,1.76,3.34,2.47c-.15.53-.29,1-.43,1.58q-10.94-3-22-5.49l.36-1.59a5.59,5.59,0,0,0,4.24-.8q1-.78,2.13-5.51,5-21,9.94-42c.74-3.12.87-5.15.39-6.07s-1.74-1.74-3.79-2.46l.37-1.64Q444.82,441,454.48,443.53Z" transform="translate(-22.59 -60.8)"/><path class="cls-1" d="M521.78,507.78q-11.65-5.05-23.5-9.53c-1.71,5.38-1.78,10.1-.27,14.2a10.4,10.4,0,0,0,6,6.44,9.63,9.63,0,0,0,5.42.59,20.47,20.47,0,0,0,6.8-3.06c.38.52.75,1,1.12,1.57-4.12,3.33-7.87,5.34-11.32,6A18.33,18.33,0,0,1,495.59,523c-6.09-2.39-9.87-6.35-11.44-12.06a25,25,0,0,1,1-15.08c2.34-6.69,6.17-11.33,11.62-13.82a20.19,20.19,0,0,1,16.35-.52,16.81,16.81,0,0,1,9.67,9.65C524.65,495.76,524.3,501.31,521.78,507.78Zm-10.08-7.53c1.84-4.52,2.82-7.72,3-9.63a8.06,8.06,0,0,0-1-4.87,4.6,4.6,0,0,0-2.35-1.81,5.1,5.1,0,0,0-4.88.59c-2.83,1.8-5,4.91-6.71,9.3l-.56,1.49C503.33,496.91,507.53,498.55,511.7,500.25Z" transform="translate(-22.59 -60.8)"/></g></svg>